/* XPM */
static char *b9dfbdbc79434a09a64675a596c9f181pIgTTHZRGGLX207y[] = {
/* columns rows colors chars-per-pixel */
"64 64 256 2 ",
"   c #0A0B09",
".  c #140C0C",
"X  c #09120E",
"o  c #18110E",
"O  c #160E12",
"+  c #0A1916",
"@  c #141413",
"#  c #1B1514",
"$  c #1C1C1B",
"%  c #171918",
"&  c #0E0F11",
"*  c #231C1C",
"=  c #261818",
"-  c #260F0F",
";  c #18271C",
":  c #04361B",
">  c #052518",
",  c #24231E",
"<  c #3A211C",
"1  c #1C1E20",
"2  c #251E22",
"3  c #192723",
"4  c #083A24",
"5  c #163628",
"6  c #15372D",
"7  c #242322",
"8  c #2B2324",
"9  c #282829",
"0  c #352828",
"q  c #323431",
"w  c #453635",
"e  c #523332",
"r  c #633637",
"t  c #01421E",
"y  c #034424",
"u  c #024B25",
"i  c #0B442B",
"p  c #044C2B",
"a  c #0B4B2D",
"s  c #084427",
"d  c #15452C",
"f  c #02522C",
"g  c #09542C",
"h  c #0C4D32",
"j  c #054E31",
"k  c #134B32",
"l  c #194935",
"z  c #045432",
"x  c #0B5434",
"c  c #045B34",
"v  c #0B5B35",
"b  c #0C5D3B",
"n  c #0A573A",
"m  c #135B3C",
"M  c #165539",
"N  c #19522F",
"B  c #254637",
"V  c #27553B",
"C  c #046334",
"Z  c #0B623A",
"A  c #0B6A3D",
"S  c #04673A",
"D  c #13633C",
"F  c #007337",
"G  c #4C423D",
"H  c #6D453A",
"J  c #513E42",
"K  c #195D42",
"L  c #095C41",
"P  c #255B47",
"I  c #2E5045",
"U  c #0C6C43",
"Y  c #076A42",
"T  c #176846",
"R  c #0B7345",
"E  c #0C7B4C",
"W  c #077746",
"Q  c #13754D",
"!  c #14774A",
"~  c #187A54",
"^  c #0C7D52",
"/  c #26674B",
"(  c #286B55",
")  c #267857",
"_  c #346F58",
"`  c #387A64",
"'  c #2F7367",
"]  c #574546",
"[  c #504E4A",
"{  c #705352",
"}  c #48776B",
"|  c #6F6B6F",
" . c #60645A",
".. c #885A59",
"X. c #93625E",
"o. c #876866",
"O. c #977775",
"+. c #936F6D",
"@. c #AB7571",
"#. c #915C62",
"$. c #C5767C",
"%. c #07854B",
"&. c #0A8955",
"*. c #158758",
"=. c #0A9759",
"-. c #15935C",
";. c #12894E",
":. c #26835C",
">. c #0CA35C",
",. c #0B9C63",
"<. c #189765",
"1. c #188F64",
"2. c #278863",
"3. c #348569",
"4. c #259569",
"5. c #349473",
"6. c #09A667",
"7. c #16A769",
"8. c #18AB73",
"9. c #0BB874",
"0. c #16B876",
"q. c #11B46B",
"w. c #26A574",
"e. c #26B77B",
"r. c #29A773",
"t. c #4B8B75",
"y. c #718370",
"u. c #0CC87A",
"i. c #19C57C",
"p. c #10D07A",
"a. c #27C67D",
"s. c #00803E",
"d. c #998B79",
"f. c #B7867A",
"g. c #AF8C79",
"h. c #C1887E",
"j. c #73768C",
"k. c #5C7989",
"l. c #897A93",
"z. c #B47D83",
"x. c #CB7B87",
"c. c #1CBB81",
"v. c #29BB84",
"b. c #38B388",
"n. c #339682",
"m. c #4F9388",
"M. c #768997",
"N. c #7697A9",
"B. c #75ACB6",
"V. c #59AE98",
"C. c #18C984",
"Z. c #1BD588",
"A. c #28C888",
"S. c #26D78A",
"D. c #37CB96",
"F. c #28D796",
"G. c #37D897",
"H. c #32CF8C",
"J. c #2AE498",
"K. c #37E698",
"L. c #34E996",
"P. c #37ECA4",
"I. c #3CDAA3",
"U. c #46CB99",
"Y. c #44E69C",
"T. c #41F39F",
"R. c #48D7A2",
"E. c #48EAA6",
"W. c #53EDA9",
"Q. c #49F5A8",
"!. c #56F6AC",
"~. c #59FBB3",
"^. c #50F2B1",
"/. c #66F9B6",
"(. c #76FABA",
"). c #67C799",
"_. c #79B0C7",
"`. c #6BFDC1",
"'. c #89859B",
"]. c #96928D",
"[. c #A98986",
"{. c #B98B86",
"}. c #BC948A",
"|. c #BA9794",
" X c #AD9392",
".X c #B6A395",
"XX c #8A8CA5",
"oX c #928CA5",
"OX c #8799A9",
"+X c #9896AC",
"@X c #999BB3",
"#X c #8D97B3",
"$X c #A49CB5",
"%X c #AF9CA9",
"&X c #9AA5B8",
"*X c #8AA9B0",
"=X c #A4A2BB",
"-X c #A9A5BB",
";X c #B4A8BA",
":X c #BAB4BB",
">X c #B2AAA9",
",X c #93A590",
"<X c #C78988",
"1X c #C7958B",
"2X c #CA9A96",
"3X c #D39A96",
"4X c #CE908F",
"5X c #D8A499",
"6X c #C8A69B",
"7X c #D29DA5",
"8X c #EC9BA5",
"9X c #D9A9A5",
"0X c #D8B7B9",
"qX c #CCAEAB",
"wX c #E4AAA7",
"eX c #E9B3AD",
"rX c #E9B7B7",
"tX c #F4B9B8",
"yX c #F2B2B1",
"uX c #E49E9D",
"iX c #A8C7B7",
"pX c #D3C4B9",
"aX c #F9C2BC",
"sX c #EAC1BA",
"dX c #9CADC5",
"fX c #ACAAC2",
"gX c #A8AAC6",
"hX c #B2ADC4",
"jX c #B6AEC6",
"kX c #B5B3CB",
"lX c #BAB5CC",
"zX c #BAB6C7",
"xX c #BEBAD2",
"cX c #B9B6D4",
"vX c #AEB3CA",
"bX c #AE9CC4",
"nX c #C6B9C9",
"mX c #D5BDCB",
"MX c #C2BCD3",
"NX c #CABCD4",
"BX c #D4BDD2",
"VX c #F8BCC3",
"CX c #EBBEC2",
"ZX c #BBC4CF",
"AX c #93C6D7",
"SX c #C8C3CA",
"DX c #C8C4D5",
"FX c #D4C7D6",
"GX c #D6CACC",
"HX c #EAC7C7",
"JX c #F8C7C8",
"KX c #FBCDD4",
"LX c #FDD4D8",
"PX c #F7D2C9",
"IX c #FFDBE3",
"UX c #C8E0D3",
/* pixels */
"8.d : 4 v &.&.M d 4 Q 7.0.0.~ x k i k :.,.,.<.! g x *.v.J.v.Q l K T :.G.(.R.) / ' G.I.2.' R.F.2.P P w.W./.e.T i 4 K -.i.S.q.F N ",
"6.4 4 k / ~ Q M 6 4 6 U E Q T n i M b <.<.7.r.7.P M T -.A.A.*.K P T T A.`.^.:./ ' U.E.b.2.D.R.3./ ) b./.`.G.4.V k n &.q.C.0.%.u ",
"R 4 4 4 l E &.m k 6 6 k K T T Q m k ^ 9.<.T 3.<.T N B l w.J.-.B q l l 5.R.E.5._ ' b.E.R.b.D.D.3./ 3.v.R.W.D.1.l d v q.H.K.Y.H.%.",
"s 4 6 4 U e.H.7.h k k Q ~ T Q *.( k 4.A.4.d ) :./ N 9 7 ( r.U , 3 3 # 6 5 / ( V I n.U.R.U.U.r.` _ ` 4.v.v.v.1.n d ! H.Y.a.Y.!.a.",
"k 4 5 n 8.W./.F.M B l Q ~ T K ) *.D ~ ) 5 * ; 8 , ; ; = ; > ; ; & & # % . % 5 ; % I 3.n.b.m.` } ` _ 5.v.v.b.v.~ d -.Q.T.;.a.~.Y.",
"T x 6 b 6.U./.F.Q M l ( ) T L 2.;.) k ; - < . * , , @ O . - o   . % X   o o * * & 1 P ' _ } m.} } 3.b.D.4.v.J.n.g -.Q.!.;.7.!.W.",
"A U k h A r.!.E.1.k M ~ 1.) K ~ :.T 5 % 0 7 % , , 0 w 0 o o o . @ @     % . & + + % 3 6 9 I t.3.` 5.U.D.2.1.F.v.D *.W.!.<.%.W.!.",
"R Q M a N / E.^.r.K I ~ 1.` K ) B ; . 0 0 < , o - @ 7 7 #     o       2 $   % 3 @ 2   O % + ' m.} n.U.I.3.` F.A.! ! Y./.a.;.Y.!.",
"D ^ L l M T G.~.v.V K ( 2.1.1.l , . o o o 8 $ # % & O # 9 O @ O # O , 7 9 & % 1 # $ 3 $ % % 6 _ m.5.V.I.5.' v.F.:.A A./.R.e.L.T.",
"m E T V B n U.(.E.4.( / ' 3.2.5 o = * = # * . =   O 2 0 0 0 0 * * 8   1 O # &   O   % $ % & X + 6 ` b.P.b.~ v.v.*.D -.T.!.K.J.a.",
"D E Y l M ~ R./.^.b.3.( / 2.( 9 o # = , o # , 9 $ = 2 q [ J 2 = * , % $ # * O % # 9 % X % % + + + 6 3.I.D.b.c.8.! D A >.a.a.p.=.",
"T ! m l K :.A.G.G.r._ P ) 4.d , o # * 0 = # ; . @ 0 2 = q J w = , * $ % 2 0 $ @ @ 7 1 + 1 1 7 1 9 q K 5.U.b.b.1.M / D D >.S.L.7.",
"D D l V M / <.v.c.w.3./ 5.4.; - # 8 = # $ o # * 9 q 2 - * w | w 9 w 2 2 # O 2 2 #   @ 3 %   1 X 3 I K ' 5.w.e.Q N T / ~ a.!.(.H.",
"-.*.b k M / w.v.v.H.b.:.2.G , o . 8 * = # . @ $ J 9 0 { O.O.+.J J q 2 w ] 8 2 #     % @   & 9 1 + K 3.' 4.P.E.8./ D D -.Z.!.iXL.",
"K.G.;.x M 2.A.v.*.D.G.r.M # o , * 8 2 . . . @ @ 0 r o.7XJXrX|.[.o.{ [. X0X{ # 2 7 q 0 O @ + + X + I ) 2.b.^.`.H.D A A F =.H.~.Q.",
"~.P.&.V M 1.F.v.( 8.P.e./ : , * 2 q 8 O 0 0 # # w ] |.wXJXPXHX9XwXJXLXKXLXO.- 0 7 @ * O 7 9 3 3 3 + ( 3.w.D.W.Y.;.D D N A q.Q./.",
"E.W.q.Z n *.F.A.Q w.F.i./ B V % @ # * 0 1 9 = 0 e {.KXPXaXaXaXaXJXPXJXJXrXe 0 8 ,       2 % 1 3 3 > ( 2.~ w.^.I.;.U A A D ;.Q./.",
"A.E.A.T M ) D.A.' ^ F.D.V , 5 # % 0 # @ 2 * - w e X.9X2XaXaXtXaXaXJXHXKXCXH < 0 = ,   # % 1 % 3 % i 4.1._ 1.I.I.7.! A D v ;.Y.(.",
"q.^.G.! k K v.F.8.1.F.v.V d q . @ # $ * = = - < H r +.z.eXyXaXaXtXJXVXCXVX@.H H 0 = o = 8 2 1 1 % 3 ) 4./ ^ F.P.a.;.F Z A 7.Q./.",
"-.E.J.&.m n -.F.c.v.c.<.D d ; @ o o q 0 2 < 0 e r ..<XrXPXtXaXaXJXPXIXKXKXVX8XwX@.< = . ; % 9 + M M E -.( 4.F.P.P.a.;.A ;.7.L.Y.",
"~ G.L.q.! m T 1.n.8.*.^ M ;   . = = 2 - - r 1X2X%X7XCXIXIXLXKXJXJXKXIXLX0X|. X|.}...0 ; % $ 3 + 6 e.C.*./ <.c.I.J.e.-.A v E 7.i.",
"*.A.F.0.R k l n Y 1.1.^ T 9 = @ 8 2 9 8 - { {.O.[ 0 J | |.rXKXVXKXrX>Xo.q 9 q q { | G , $ $ 2 O q 4.w.K / 1.,.,.7.;.Z v g C =.Z.",
"E 0.a.i.&.A l K 1.c.v.A.4.M @ 7 = = $ = - +.{ o.[.].+.{ O.9XJXKXCX|.+...o.[. Xd.{ |  .# # % 1 1 d K P K T L T Q 1.E x N Z ^ 7.J.",
"=.a.G.J.H.<.b ~ v.c.c.D.F.1.X O . & O O < O.|.mXJXJX9X5X3X9XPXJXJX2X2X<X3XwX3XuX6XO.o.0 @ $ + 5 5 l K T T ~ *.4.C.8.Q Z A E 1.S.",
"0.K.T.T.W.H.A -.J.e.Q v.F.w.L $ = $ . @ J 3XeX<X+.r w ..X.8XVXJXrXuXuX..] < ] { f..X}. .X 9 e ; Y *.T / T Q *.<.C.e.U m S U R 7.",
"H.T.a.a.!.Y.-.-.F.C.U 8.J.v.Q 3 8 = = * { rX9XX.O.O.r [.@.wXtXaXwX3X4XX.H r +.o.X.qX:X} ; 9 w q 4.w.Q K T T Y U 9.0.E D S n v <.",
"L.!.i.>.Q.!.q.;.F.C.Q 1.F.v.Q ; < ..r e z.9XrXrXVXwX7X3XwXuXtXtXtX9X3X<Xz.2XwX7X9XpXZX*X- o o B 1.w.^ m K K n K 0.0.&.Z Z m x &.",
"S.!.a.%.Y./.i.;.D.F.*.^ F.v.Q 6 e h.1X@.<XeXrXKXVXVXtXtXtXyXtXtXyXGXqXeXwX9XCXCXpXpXUXiXq ; 9 V ^ w.*.L K K x n <.C.*.S C b C &.",
"p.!.L.=.a.!.a.A 6.F.9.6.F.8.U z < @.yX$.h.eXJXKXKXHXKXJXKXtXtXVXyXUXpXtXCXmXVXCXHXpXUX,X0 < ] 5 E <.*.T m T h j =.A.7.R S v U =.",
"7.T.T.p.L.!.a.C W c.c.8.8.W c z ; @.8XX.f.eXJXLXIXKXLXLXVXyXyXVXCXpXpX9XVXIXKXVXtXpXGXy.r z.+.: ^ 7.1.Y x m k m =.i.0.! A v m &.",
"! a.!.L.T.L.-.g j Q &.&.^ L M K :  .wX$...eXaXPXIXIXHXKXKXwXVXLXVXHX0X0XKXKXCXVXtXpXqXy.|.rX[ z *.7.7.Q b x x m ;.6.-.U C c x S ",
"u ;.a.S.S.p.A g j h Y 1.1.Y x h Z a 1XJX+.1XaXaXKXIXLXHXyXwX7XKXtX}.7XrXCXVXCXCXpXpX>X| 0XO.z b E -.<.Q Z v x f S &.%.D c c v Y ",
"u t F i.a.a.F g x n E 9.9.Q k n K M 0 CX@.[.yXtXJXLXLXJXVX4X@.7X4X@.<XtXtXJXyXrX9XpX.X| .Xl h L D R W m m j j k U =.>.W c v v C ",
"s g -.L.!.Y.-.u x c Z -.q.^ m c c Y K  .{ O.eX5XJXHXIXKXKXVX2X|.7Xz.9XwXrXCXrX9XwX.X,X .6 d K k b W *.U x x j h U =.7.%.c g v c ",
"i g >.L./.!.>.N z z x Q 8.&.n c b Y Y : $ #.7XwXyXJXLXKXKXeXz.z.].| z.9XtX0X0XpX6XqX].3 4 j n M m E *.W z h j p L W =.;.c x g g ",
"A a F q.Y.Q.q.C h z i Y 6.,.c f x c T l   { 2X2XeXJXJX0X2Xz.O.4X4XO.o.+.+.qXrX5X.X%XO.% 6 k j x x U &.E x h h 4 x C -.&.C g g g ",
"&.s u S U.!.a.F a j i c 6.6.Y N x c U k X w [.2X5XeX9X}.4X7X7X8X8Xx.<X{...g.9X6X X].{ ; 3 h p a k c E E c d h s x c *.=.S f z i ",
",.z t u a.~.L.s.f p h c ,.8.&.v a f C d % - o.2X2XrXeX1Xz.z.x.x.x.x.z.@.@.1X6X.Xd.| q > h i i h i u R E C p 4 i h v &.=.W c a g ",
"6.c t a 0.!.T.q.S u g S -.7.&.Y x g p g 5 ; w {.6X3X9XwX4X4X8X8X8X8X4X<XwX5X.Xd.+.[ 5 x b x i a a u U *.A p 4 4 h c %.-.&.Z a f ",
"6.u : D u./.!.S.&.f h c ^ =.&.W p a g C U ~ i J [.2X5XwXtX8X8X8X8Xx.<X6XqX6X[.+.] 9 4 c Z u s j a p A %.W n i s z S %.=.&.U a f ",
"=.i y W e.K.K.p.%.g : Z -.6.7.6.A u C b *.=.W w ..2X1X3X5X9X4X@.#.@.1X1X6X2X[.] 9 } V g U j d s u f D T U z 4 4 d C =.9.0.9.^ y ",
"n 4 y p %.p.S.0.F t s *.9.,.<.C.6.f h k W &.%.O.{ O.1X1X3X5X3XX.#.x.}.6X6X|.| 8 { .XD c b c 4 h s p c Y Y S p 4 y *.S.Z.Z.P.8.f ",
"u 4 4 p =.L.!.a.F d g >.0.^ W u.u.Y s y c &.%.d.g.e { O.[.{.X.X.X.f.{.l.| | G G .X.XV z v C n 4 6 h Y Y W W c 4 f 0.P.7.,.P.P.%.",
"C h 4 c q.T./.T.%.u f >.C.&.f 8.u.^ p y z ;.%.d.wX{ = G ] J { e ] ] { ] B , , d..X.X` W *.E W n 4 z W U Y &.E p f u.P.-.S S.P.7.",
"Y S y p F q.Q.T.>.u g =.C.<.u ,.C.*.s i i W %.d.uX2Xe - 0 9 8 9 0 w J q 1 $ { 1X5X.Xt.=.%.>.6.U y C &.U f R &.b a q.Q.0.a u.Q.8.",
"S W p : u ! Y.!.q.t t ;.C.q.C -.C.%.s p n W ;.d.uXwX}.G 2 2 2 9 2 8 %   2 { 6X5X2X.XM.t.! F 6.,.p c ;.W y Z ^ S d 6.P.S.f 6.P.i.",
"c Q f 4 : v a.!.i.C y b 7.0.&.6.9.Y : y K 3.y.h.5X5X9XqXz.J 0 - = . - w l.qX2X1X.X1X,X,XN.m.n.n.K L ^ W y z W A t %.J.J.-.9.J.7.",
"f U z u : u a.!.J.=.f y ^ 9.6.,.=.T y.].:XqX<X1X5XwX3X3XwXwX}.O.o.o.d.6X5X2X2X2X6Xg.,X,X*XAXOXV.m.' 1.&.p g R C s u 9.J.C.0.Z.W ",
"a S c y 4 S A.!.P.i.F u t F u.u.M.>X.X;XFX>X4X4X5X5XuX5X2X5X9XeXyXeX6X1X}.1X2X2X1X.Xd.,XN.AXdXN.j.j.k.m.' L Y f 4 4 c q.q.8.=.t ",
"u S h : y Q p.J.L.7.v : g >.U.>X:X>X,X;XDX:X1X4X5X9XwX5X5X2X3X5X5X1Xf.{.}.}.1X1X}..X.X].*XdXB.N.M.j.k.B.B.k.' s : : 4 z W %.%.E ",
"c C : : y a &.8.>.7.S : _ >X0X0XnX;X-XzXnX:X X5X5X9X5XwX5X3X3Xh.h.f.f.}.}.}.h.1Xg.}.|.].&XdXN.OX#Xl.j.j.B.N.j.k.K 4 > S 7.&.=.6.",
";.F s : > k 6.,.q.9.r.OXnXGXzXSX:X;X:XnXxXDX>XuX5X5X5XwXwX5X5X1Xf.h.f.}.1Xg.f.f.g.g.[.,X&XdXXX#XXXl.j.l._.N.l.#X#X` n %.q.F R u.",
"a.p.F : : A 9.6.:.B.SXmXSXSXnXDX;XzXzXNXDXDXNX7X5X5X5X5X5X5X5X3X1X1Xh.h.{.f.f.f.f.f.].,XdX@X#XN.oXXXM.oX@XB.j.oX=X@XB.b.8.S M ,.",
"!.P.s.t : F b.).qXmXBXnXnXBXNX;XnXzXnXSXDXMXDXMX5X5X3X1X5X5X5X5X5X1Xh.g.f.f.f.f.f.{.+X&X#X@X=XXXj.#X$X@X+XB.m.j.oXbXbXOXV.' : =.",
"Y.L.>.t ; t.iXpXpXZXDXDXFXSXSXnXFXnXnXxXDXDXDXZXpX6X6X1X1X5X1X3Xf.f.f.g.g.f.f.@. X%X-X&X@XgXgX+XXX#XbX$X$XgXOXj.M.;XzX+X_._.3.&.",
"a.T.q.N  XGXsXSXSXmXNXDXFXmXSXSX-XzX0XkXcXNXDXNXDXnX6X6X3X1Xh.h.f.f.@.@.@.@.{.|.-X&X&X$X-XvXfX;Xl.oXgXfXdXcXgXj.l.@X&X+XB.B.AX_.",
"q.L.).qXHXGXSXzXnXMXMXBXSXnXFXkXfXMXlXhXlXMXMXMXZXZXMXzXqX2X<X$.@.@.+.@. X%X%XhXgX$X=XfXfX=XhXvX+XXXfXkX+X=XvX'.j.XXjX$X@X*X_.AX",
"%.iXmXGXGXSXnXnXnXnXBXDXDXFXnX=XkXDXMXjXzXMXlXMXcXxXcXcXcXnXjXjX>X>X;XfXhXgXdXgX=X$X=XfXfXfXlXcXgX+X+XhX$X+XfXoXM.oX-X$X@XOXB.B.",
"M.pXGXnXmXnX;XMXnXnXSXSXDXFXhX$XxXDXMXzXlXlXjXlXMXcXcXcXcXcXvXvXjXfXfXvXhXgXvXcXfXfXfXhXfXfXkXcXkX=X+X=X=XXX=X@Xl.oXfX=X#X#X*X*X",
"GXFXZXDXFXqX:XFXnXjXnXDXFXDX+X=XMXMXMXMXMXlXkXlXzXxXkXcXcXcXcXkXDXMXMXxXMXjXjX;X=XfXhXhXfX=XhXjXhXhX=X$X$Xj.+X-XXX@XjXgX#X#XOXM.",
"DXZXFXnXZX>XzXmXnX:XGXFXFXhX'.-XxXMXMXMXMXlXjXMXMXnXkXlXlXlXMXMXvXcXcXvXgXkXcXgX+X-XjXkXkXkXjXfXfXjXfX+X+X'.'.;XoX$XgX=X&XM.| k.",
"GXzXFXFX0X:XSXZX;XzXFXDXFX$X'.=XxXxXMXMXMXkXjXkXMXMXcXkXkXvXkXkXlXkXvX$X$XvXcXgX=XhXkXhXlXlXkXfXhXfXjX+X+X'.j.jX+X$X$XgXN.j.| j.",
"jX=XhXBXmXzXnXnX$XnXFXSXjXoXoXhXDXxXMXNXnXjXlXMXMXcXcXlXkXcXcXcX$X%X$XjXhXnXjX+XhXxXjXfXhXjXzXhXkX;XfX@XoXoXj.hX$X=XgXgXj.k.j.j.",
"ZX;X@XgXjXnXNX-X$XDXSXSX-X'.oXxXMXxXMXNXkXjXlXlXkXcXlXkXhXfX$X$X$X$XhXcXcXMXjX+XhXlXjX-X-XhXhX-XfXjXhX+XoXoXj.-X@X=XvXgXj.j.l.j."
};
